<svg data-v-fde0c5aa="" xmlns="http://www.w3.org/2000/svg" viewBox="0 0 300 300" class="font"><!----><defs data-v-fde0c5aa=""><!----></defs><rect data-v-fde0c5aa="" fill="transparent" x="0" y="0" width="300px" height="300px" class="logo-background-square"></rect><defs data-v-fde0c5aa=""><linearGradient data-v-fde0c5aa="" gradientTransform="rotate(25)" id="fe84fba1-baea-4f2c-be3b-3dcb12bbd10b" x1="0%" y1="0%" x2="100%" y2="0%"><stop data-v-fde0c5aa="" offset="0%" stop-color="#000E9C" stop-opacity="1"></stop><stop data-v-fde0c5aa="" offset="100%" stop-color="#010852" stop-opacity="1"></stop></linearGradient></defs><g data-v-fde0c5aa="" id="4085f621-99db-44c1-a333-0ad6809a077e" fill="url(#fe84fba1-baea-4f2c-be3b-3dcb12bbd10b)" transform="matrix(2.7295286655426025,0,0,2.7295286655426025,36.942927968811865,128.20471451392)"><path d="M1.12 13.05L1.12 5.98L1.12 5.98Q1.57 5.87 2.31 5.74L2.31 5.74L2.31 5.74Q3.05 5.61 4.02 5.61L4.02 5.61L4.02 5.61Q4.89 5.61 5.46 5.86L5.46 5.86L5.46 5.86Q6.03 6.10 6.38 6.54L6.38 6.54L6.38 6.54Q6.72 6.99 6.86 7.60L6.86 7.60L6.86 7.60Q7 8.22 7 8.96L7 8.96L7 13.05L5.70 13.05L5.70 9.24L5.70 9.24Q5.70 8.57 5.61 8.09L5.61 8.09L5.61 8.09Q5.52 7.62 5.31 7.32L5.31 7.32L5.31 7.32Q5.10 7.03 4.75 6.89L4.75 6.89L4.75 6.89Q4.40 6.76 3.88 6.76L3.88 6.76L3.88 6.76Q3.67 6.76 3.44 6.78L3.44 6.78L3.44 6.78Q3.22 6.79 3.02 6.81L3.02 6.81L3.02 6.81Q2.81 6.83 2.65 6.86L2.65 6.86L2.65 6.86Q2.49 6.89 2.42 6.90L2.42 6.90L2.42 13.05L1.12 13.05ZM11.62 12.11L11.62 12.11L11.62 12.11Q12.08 12.11 12.44 12.09L12.44 12.09L12.44 12.09Q12.80 12.07 13.03 12.01L13.03 12.01L13.03 9.84L13.03 9.84Q12.89 9.77 12.58 9.72L12.58 9.72L12.58 9.72Q12.26 9.67 11.82 9.67L11.82 9.67L11.82 9.67Q11.52 9.67 11.19 9.72L11.19 9.72L11.19 9.72Q10.86 9.76 10.59 9.89L10.59 9.89L10.59 9.89Q10.32 10.02 10.14 10.25L10.14 10.25L10.14 10.25Q9.95 10.49 9.95 10.86L9.95 10.86L9.95 10.86Q9.95 11.56 10.40 11.84L10.40 11.84L10.40 11.84Q10.85 12.11 11.62 12.11ZM11.51 5.59L11.51 5.59L11.51 5.59Q12.29 5.59 12.83 5.79L12.83 5.79L12.83 5.79Q13.37 5.99 13.70 6.36L13.70 6.36L13.70 6.36Q14.03 6.73 14.17 7.25L14.17 7.25L14.17 7.25Q14.31 7.76 14.31 8.37L14.31 8.37L14.31 12.92L14.31 12.92Q14.14 12.95 13.84 13.00L13.84 13.00L13.84 13.00Q13.54 13.05 13.16 13.09L13.16 13.09L13.16 13.09Q12.78 13.13 12.34 13.17L12.34 13.17L12.34 13.17Q11.90 13.20 11.47 13.20L11.47 13.20L11.47 13.20Q10.85 13.20 10.33 13.08L10.33 13.08L10.33 13.08Q9.81 12.95 9.44 12.68L9.44 12.68L9.44 12.68Q9.06 12.40 8.85 11.96L8.85 11.96L8.85 11.96Q8.64 11.51 8.64 10.88L8.64 10.88L8.64 10.88Q8.64 10.28 8.88 9.84L8.88 9.84L8.88 9.84Q9.13 9.41 9.55 9.14L9.55 9.14L9.55 9.14Q9.97 8.88 10.53 8.75L10.53 8.75L10.53 8.75Q11.09 8.62 11.70 8.62L11.70 8.62L11.70 8.62Q11.90 8.62 12.11 8.64L12.11 8.64L12.11 8.64Q12.32 8.67 12.51 8.70L12.51 8.70L12.51 8.70Q12.70 8.74 12.84 8.76L12.84 8.76L12.84 8.76Q12.98 8.79 13.03 8.81L13.03 8.81L13.03 8.44L13.03 8.44Q13.03 8.12 12.96 7.80L12.96 7.80L12.96 7.80Q12.89 7.49 12.71 7.25L12.71 7.25L12.71 7.25Q12.53 7 12.21 6.85L12.21 6.85L12.21 6.85Q11.90 6.71 11.40 6.71L11.40 6.71L11.40 6.71Q10.75 6.71 10.27 6.80L10.27 6.80L10.27 6.80Q9.79 6.89 9.55 6.99L9.55 6.99L9.39 5.91L9.39 5.91Q9.65 5.80 10.23 5.69L10.23 5.69L10.23 5.69Q10.82 5.59 11.51 5.59ZM16.46 13.05L16.46 5.98L16.46 5.98Q16.91 5.87 17.65 5.74L17.65 5.74L17.65 5.74Q18.40 5.61 19.36 5.61L19.36 5.61L19.36 5.61Q20.23 5.61 20.80 5.86L20.80 5.86L20.80 5.86Q21.38 6.10 21.72 6.54L21.72 6.54L21.72 6.54Q22.06 6.99 22.20 7.60L22.20 7.60L22.20 7.60Q22.34 8.22 22.34 8.96L22.34 8.96L22.34 13.05L21.04 13.05L21.04 9.24L21.04 9.24Q21.04 8.57 20.95 8.09L20.95 8.09L20.95 8.09Q20.86 7.62 20.65 7.32L20.65 7.32L20.65 7.32Q20.44 7.03 20.09 6.89L20.09 6.89L20.09 6.89Q19.74 6.76 19.22 6.76L19.22 6.76L19.22 6.76Q19.01 6.76 18.79 6.78L18.79 6.78L18.79 6.78Q18.56 6.79 18.36 6.81L18.36 6.81L18.36 6.81Q18.16 6.83 18.00 6.86L18.00 6.86L18.00 6.86Q17.84 6.89 17.77 6.90L17.77 6.90L17.77 13.05L16.46 13.05ZM30.93 9.41L30.93 9.41L30.93 9.41Q30.93 10.28 30.67 10.98L30.67 10.98L30.67 10.98Q30.42 11.68 29.97 12.18L29.97 12.18L29.97 12.18Q29.51 12.68 28.88 12.96L28.88 12.96L28.88 12.96Q28.25 13.23 27.51 13.23L27.51 13.23L27.51 13.23Q26.77 13.23 26.14 12.96L26.14 12.96L26.14 12.96Q25.51 12.68 25.05 12.18L25.05 12.18L25.05 12.18Q24.60 11.68 24.35 10.98L24.35 10.98L24.35 10.98Q24.09 10.28 24.09 9.41L24.09 9.41L24.09 9.41Q24.09 8.55 24.35 7.85L24.35 7.85L24.35 7.85Q24.60 7.14 25.05 6.64L25.05 6.64L25.05 6.64Q25.51 6.13 26.14 5.86L26.14 5.86L26.14 5.86Q26.77 5.59 27.51 5.59L27.51 5.59L27.51 5.59Q28.25 5.59 28.88 5.86L28.88 5.86L28.88 5.86Q29.51 6.13 29.97 6.64L29.97 6.64L29.97 6.64Q30.42 7.14 30.67 7.85L30.67 7.85L30.67 7.85Q30.93 8.55 30.93 9.41ZM29.57 9.41L29.57 9.41L29.57 9.41Q29.57 8.18 29.02 7.46L29.02 7.46L29.02 7.46Q28.46 6.73 27.51 6.73L27.51 6.73L27.51 6.73Q26.56 6.73 26.00 7.46L26.00 7.46L26.00 7.46Q25.45 8.18 25.45 9.41L25.45 9.41L25.45 9.41Q25.45 10.64 26.00 11.36L26.00 11.36L26.00 11.36Q26.56 12.08 27.51 12.08L27.51 12.08L27.51 12.08Q28.46 12.08 29.02 11.36L29.02 11.36L29.02 11.36Q29.57 10.64 29.57 9.41ZM34.45 12.11L34.45 12.11L34.45 12.11Q35.25 12.11 35.64 11.90L35.64 11.90L35.64 11.90Q36.02 11.69 36.02 11.23L36.02 11.23L36.02 11.23Q36.02 10.75 35.64 10.47L35.64 10.47L35.64 10.47Q35.27 10.19 34.40 9.84L34.40 9.84L34.40 9.84Q33.98 9.67 33.59 9.50L33.59 9.50L33.59 9.50Q33.21 9.32 32.93 9.09L32.93 9.09L32.93 9.09Q32.65 8.85 32.48 8.51L32.48 8.51L32.48 8.51Q32.31 8.18 32.31 7.69L32.31 7.69L32.31 7.69Q32.31 6.72 33.03 6.15L33.03 6.15L33.03 6.15Q33.74 5.59 34.97 5.59L34.97 5.59L34.97 5.59Q35.28 5.59 35.59 5.62L35.59 5.62L35.59 5.62Q35.90 5.66 36.16 5.71L36.16 5.71L36.16 5.71Q36.43 5.75 36.63 5.81L36.63 5.81L36.63 5.81Q36.83 5.87 36.95 5.91L36.95 5.91L36.71 7.03L36.71 7.03Q36.50 6.92 36.05 6.80L36.05 6.80L36.05 6.80Q35.60 6.68 34.97 6.68L34.97 6.68L34.97 6.68Q34.43 6.68 34.02 6.89L34.02 6.89L34.02 6.89Q33.61 7.11 33.61 7.57L33.61 7.57L33.61 7.57Q33.61 7.81 33.70 7.99L33.70 7.99L33.70 7.99Q33.80 8.18 33.98 8.32L33.98 8.32L33.98 8.32Q34.17 8.47 34.45 8.60L34.45 8.60L34.45 8.60Q34.73 8.72 35.13 8.86L35.13 8.86L35.13 8.86Q35.64 9.06 36.05 9.25L36.05 9.25L36.05 9.25Q36.46 9.44 36.74 9.69L36.74 9.69L36.74 9.69Q37.03 9.94 37.18 10.30L37.18 10.30L37.18 10.30Q37.34 10.65 37.34 11.17L37.34 11.17L37.34 11.17Q37.34 12.18 36.59 12.70L36.59 12.70L36.59 12.70Q35.84 13.22 34.45 13.22L34.45 13.22L34.45 13.22Q33.49 13.22 32.94 13.05L32.94 13.05L32.94 13.05Q32.40 12.89 32.20 12.81L32.20 12.81L32.44 11.69L32.44 11.69Q32.66 11.77 33.15 11.94L33.15 11.94L33.15 11.94Q33.64 12.11 34.45 12.11ZM38.60 9.42L38.60 9.42L38.60 9.42Q38.60 8.46 38.88 7.74L38.88 7.74L38.88 7.74Q39.16 7.01 39.62 6.54L39.62 6.54L39.62 6.54Q40.08 6.06 40.68 5.82L40.68 5.82L40.68 5.82Q41.29 5.59 41.92 5.59L41.92 5.59L41.92 5.59Q43.39 5.59 44.17 6.50L44.17 6.50L44.17 6.50Q44.95 7.42 44.95 9.30L44.95 9.30L44.95 9.30Q44.95 9.38 44.95 9.51L44.95 9.51L44.95 9.51Q44.95 9.65 44.94 9.76L44.94 9.76L39.96 9.76L39.96 9.76Q40.04 10.89 40.61 11.48L40.61 11.48L40.61 11.48Q41.19 12.07 42.41 12.07L42.41 12.07L42.41 12.07Q43.09 12.07 43.56 11.95L43.56 11.95L43.56 11.95Q44.03 11.83 44.27 11.72L44.27 11.72L44.45 12.81L44.45 12.81Q44.21 12.94 43.62 13.08L43.62 13.08L43.62 13.08Q43.02 13.22 42.27 13.22L42.27 13.22L42.27 13.22Q41.31 13.22 40.62 12.93L40.62 12.93L40.62 12.93Q39.93 12.64 39.48 12.14L39.48 12.14L39.48 12.14Q39.03 11.63 38.81 10.94L38.81 10.94L38.81 10.94Q38.60 10.25 38.60 9.42ZM39.98 8.71L43.60 8.71L43.60 8.71Q43.61 7.83 43.16 7.26L43.16 7.26L43.16 7.26Q42.70 6.69 41.90 6.69L41.90 6.69L41.90 6.69Q41.45 6.69 41.11 6.87L41.11 6.87L41.11 6.87Q40.77 7.04 40.53 7.32L40.53 7.32L40.53 7.32Q40.29 7.60 40.16 7.97L40.16 7.97L40.16 7.97Q40.03 8.33 39.98 8.71L39.98 8.71ZM49.52 5.61L49.52 5.61L49.52 5.61Q49.69 5.61 49.90 5.63L49.90 5.63L49.90 5.63Q50.12 5.66 50.33 5.69L50.33 5.69L50.33 5.69Q50.54 5.73 50.72 5.76L50.72 5.76L50.72 5.76Q50.89 5.80 50.97 5.82L50.97 5.82L50.75 6.96L50.75 6.96Q50.60 6.90 50.24 6.83L50.24 6.83L50.24 6.83Q49.88 6.75 49.32 6.75L49.32 6.75L49.32 6.75Q48.96 6.75 48.60 6.83L48.60 6.83L48.60 6.83Q48.24 6.90 48.13 6.93L48.13 6.93L48.13 13.05L46.83 13.05L46.83 6.08L46.83 6.08Q47.29 5.91 47.98 5.76L47.98 5.76L47.98 5.76Q48.66 5.61 49.52 5.61ZM56.57 5.77L57.92 5.77L57.92 5.77Q57.37 7.81 56.64 9.69L56.64 9.69L56.64 9.69Q55.90 11.56 55.22 13.05L55.22 13.05L54.04 13.05L54.04 13.05Q53.35 11.56 52.62 9.69L52.62 9.69L52.62 9.69Q51.88 7.81 51.34 5.77L51.34 5.77L52.74 5.77L52.74 5.77Q52.91 6.45 53.14 7.23L53.14 7.23L53.14 7.23Q53.37 8.01 53.63 8.77L53.63 8.77L53.63 8.77Q53.89 9.53 54.15 10.25L54.15 10.25L54.15 10.25Q54.42 10.96 54.66 11.52L54.66 11.52L54.66 11.52Q54.89 10.96 55.16 10.25L55.16 10.25L55.16 10.25Q55.43 9.53 55.69 8.77L55.69 8.77L55.69 8.77Q55.94 8.01 56.18 7.23L56.18 7.23L56.18 7.23Q56.41 6.45 56.57 5.77L56.57 5.77ZM60.56 5.77L60.56 13.05L59.26 13.05L59.26 5.77L60.56 5.77ZM59.91 4.45L59.91 4.45L59.91 4.45Q59.56 4.45 59.31 4.22L59.31 4.22L59.31 4.22Q59.07 3.99 59.07 3.60L59.07 3.60L59.07 3.60Q59.07 3.21 59.31 2.97L59.31 2.97L59.31 2.97Q59.56 2.74 59.91 2.74L59.91 2.74L59.91 2.74Q60.26 2.74 60.50 2.97L60.50 2.97L60.50 2.97Q60.75 3.21 60.75 3.60L60.75 3.60L60.75 3.60Q60.75 3.99 60.50 4.22L60.50 4.22L60.50 4.22Q60.26 4.45 59.91 4.45ZM65.97 13.22L65.97 13.22L65.97 13.22Q65.09 13.22 64.42 12.94L64.42 12.94L64.42 12.94Q63.76 12.66 63.30 12.15L63.30 12.15L63.30 12.15Q62.85 11.65 62.62 10.96L62.62 10.96L62.62 10.96Q62.40 10.26 62.40 9.42L62.40 9.42L62.40 9.42Q62.40 8.58 62.64 7.88L62.64 7.88L62.64 7.88Q62.89 7.18 63.34 6.67L63.34 6.67L63.34 6.67Q63.78 6.16 64.44 5.87L64.44 5.87L64.44 5.87Q65.09 5.59 65.88 5.59L65.88 5.59L65.88 5.59Q66.37 5.59 66.86 5.67L66.86 5.67L66.86 5.67Q67.35 5.75 67.80 5.94L67.80 5.94L67.51 7.04L67.51 7.04Q67.21 6.90 66.83 6.82L66.83 6.82L66.83 6.82Q66.44 6.73 66.01 6.73L66.01 6.73L66.01 6.73Q64.92 6.73 64.34 7.42L64.34 7.42L64.34 7.42Q63.76 8.11 63.76 9.42L63.76 9.42L63.76 9.42Q63.76 10.01 63.89 10.50L63.89 10.50L63.89 10.50Q64.02 10.99 64.31 11.34L64.31 11.34L64.31 11.34Q64.60 11.69 65.04 11.88L65.04 11.88L65.04 11.88Q65.49 12.07 66.14 12.07L66.14 12.07L66.14 12.07Q66.65 12.07 67.07 11.97L67.07 11.97L67.07 11.97Q67.49 11.87 67.73 11.76L67.73 11.76L67.91 12.85L67.91 12.85Q67.80 12.92 67.59 12.98L67.59 12.98L67.59 12.98Q67.38 13.05 67.12 13.10L67.12 13.10L67.12 13.10Q66.85 13.15 66.55 13.18L66.55 13.18L66.55 13.18Q66.25 13.22 65.97 13.22ZM68.91 9.42L68.91 9.42L68.91 9.42Q68.91 8.46 69.19 7.74L69.19 7.74L69.19 7.74Q69.47 7.01 69.93 6.54L69.93 6.54L69.93 6.54Q70.39 6.06 70.99 5.82L70.99 5.82L70.99 5.82Q71.60 5.59 72.23 5.59L72.23 5.59L72.23 5.59Q73.70 5.59 74.48 6.50L74.48 6.50L74.48 6.50Q75.26 7.42 75.26 9.30L75.26 9.30L75.26 9.30Q75.26 9.38 75.26 9.51L75.26 9.51L75.26 9.51Q75.26 9.65 75.25 9.76L75.25 9.76L70.27 9.76L70.27 9.76Q70.35 10.89 70.92 11.48L70.92 11.48L70.92 11.48Q71.50 12.07 72.72 12.07L72.72 12.07L72.72 12.07Q73.40 12.07 73.87 11.95L73.87 11.95L73.87 11.95Q74.34 11.83 74.58 11.72L74.58 11.72L74.76 12.81L74.76 12.81Q74.52 12.94 73.93 13.08L73.93 13.08L73.93 13.08Q73.33 13.22 72.58 13.22L72.58 13.22L72.58 13.22Q71.62 13.22 70.93 12.93L70.93 12.93L70.93 12.93Q70.24 12.64 69.79 12.14L69.79 12.14L69.79 12.14Q69.34 11.63 69.13 10.94L69.13 10.94L69.13 10.94Q68.91 10.25 68.91 9.42ZM70.29 8.71L73.91 8.71L73.91 8.71Q73.92 7.83 73.47 7.26L73.47 7.26L73.47 7.26Q73.01 6.69 72.21 6.69L72.21 6.69L72.21 6.69Q71.76 6.69 71.42 6.87L71.42 6.87L71.42 6.87Q71.08 7.04 70.84 7.32L70.84 7.32L70.84 7.32Q70.60 7.60 70.47 7.97L70.47 7.97L70.47 7.97Q70.34 8.33 70.29 8.71L70.29 8.71ZM78.83 12.11L78.83 12.11L78.83 12.11Q79.63 12.11 80.02 11.90L80.02 11.90L80.02 11.90Q80.40 11.69 80.40 11.23L80.40 11.23L80.40 11.23Q80.40 10.75 80.02 10.47L80.02 10.47L80.02 10.47Q79.65 10.19 78.78 9.84L78.78 9.84L78.78 9.84Q78.36 9.67 77.97 9.50L77.97 9.50L77.97 9.50Q77.59 9.32 77.31 9.09L77.31 9.09L77.31 9.09Q77.03 8.85 76.86 8.51L76.86 8.51L76.86 8.51Q76.69 8.18 76.69 7.69L76.69 7.69L76.69 7.69Q76.69 6.72 77.41 6.15L77.41 6.15L77.41 6.15Q78.12 5.59 79.35 5.59L79.35 5.59L79.35 5.59Q79.66 5.59 79.97 5.62L79.97 5.62L79.97 5.62Q80.28 5.66 80.54 5.71L80.54 5.71L80.54 5.71Q80.81 5.75 81.01 5.81L81.01 5.81L81.01 5.81Q81.21 5.87 81.33 5.91L81.33 5.91L81.09 7.03L81.09 7.03Q80.88 6.92 80.43 6.80L80.43 6.80L80.43 6.80Q79.98 6.68 79.35 6.68L79.35 6.68L79.35 6.68Q78.81 6.68 78.40 6.89L78.40 6.89L78.40 6.89Q77.99 7.11 77.99 7.57L77.99 7.57L77.99 7.57Q77.99 7.81 78.09 7.99L78.09 7.99L78.09 7.99Q78.18 8.18 78.37 8.32L78.37 8.32L78.37 8.32Q78.55 8.47 78.83 8.60L78.83 8.60L78.83 8.60Q79.11 8.72 79.51 8.86L79.51 8.86L79.51 8.86Q80.02 9.06 80.43 9.25L80.43 9.25L80.43 9.25Q80.84 9.44 81.12 9.69L81.12 9.69L81.12 9.69Q81.41 9.94 81.56 10.30L81.56 10.30L81.56 10.30Q81.72 10.65 81.72 11.17L81.72 11.17L81.72 11.17Q81.72 12.18 80.97 12.70L80.97 12.70L80.97 12.70Q80.22 13.22 78.83 13.22L78.83 13.22L78.83 13.22Q77.87 13.22 77.32 13.05L77.32 13.05L77.32 13.05Q76.78 12.89 76.58 12.81L76.58 12.81L76.82 11.69L76.82 11.69Q77.04 11.77 77.53 11.94L77.53 11.94L77.53 11.94Q78.02 12.11 78.83 12.11Z"></path></g><!----><!----></svg>